<svg width="128" height="128" viewBox="0 0 128 128" fill="none" xmlns="http://www.w3.org/2000/svg">
  <rect width="128" height="128" rx="28" fill="#FCE7F3"/>
  <path d="M32 44C36 28 48 24 56 36L64 48L72 36C80 24 92 28 96 44C100 60 100 82 64 96C28 82 28 60 32 44Z" fill="#FBCFE8"/>
  <path d="M48 66C48 70 44 74 40 74C36 74 32 70 32 66C32 62 36 58 40 58C44 58 48 62 48 66Z" fill="#FDA4AF"/>
  <path d="M96 66C96 70 92 74 88 74C84 74 80 70 80 66C80 62 84 58 88 58C92 58 96 62 96 66Z" fill="#FDA4AF"/>
  <path d="M58 86C58 82 60 80 64 80C68 80 70 82 70 86" stroke="#FB7185" stroke-width="4" stroke-linecap="round"/>
  <circle cx="50" cy="64" r="6" fill="#FB7185"/>
  <circle cx="78" cy="64" r="6" fill="#FB7185"/>
</svg>
